<?plantuml 1.2026.2?><svg xmlns="http://www.w3.org/2000/svg" xmlns:xlink="http://www.w3.org/1999/xlink" contentStyleType="text/css" data-diagram-type="DESCRIPTION" height="555px" preserveAspectRatio="none" style="width:2171px;height:555px;background:#FFFFFF;" version="1.1" viewBox="0 0 2171 555" width="2171px" zoomAndPan="magnify"><title>shock-relay Repository Architecture</title><defs/><g><g class="title" data-source-line="2"><text fill="#000000" font-family="Monospace" font-size="14" font-weight="bold" lengthAdjust="spacing" textLength="247.7466" x="953.6267" y="24.9659">shock-relay&#160;Repository&#160;Architecture</text></g><!--cluster Documentation + Contracts--><g class="cluster" data-qualified-name="Documentation . Contracts" data-source-line="9" id="ent0003"><rect fill="#F8FAFC" height="220.5" rx="2.5" ry="2.5" style="stroke:#181818;stroke-width:1;" width="364" x="14" y="131.0679"/><text fill="#000000" font-family="Monospace" font-size="14" font-weight="bold" lengthAdjust="spacing" textLength="190.8858" x="100.5571" y="148.0339">Documentation&#160;+&#160;Contracts</text></g><!--cluster Signal Adapter Lane--><g class="cluster" data-qualified-name="Signal Adapter Lane" data-source-line="15" id="ent0007"><rect fill="#F8FAFC" height="305" rx="2.5" ry="2.5" style="stroke:#181818;stroke-width:1;" width="350" x="1468" y="150.0679"/><text fill="#000000" font-family="Monospace" font-size="14" font-weight="bold" lengthAdjust="spacing" textLength="139.233" x="1573.3835" y="167.0339">Signal&#160;Adapter&#160;Lane</text></g><!--cluster HTTP Adapter Family--><g class="cluster" data-qualified-name="HTTP Adapter Family" data-source-line="22" id="ent0012"><rect fill="#F8FAFC" height="303" rx="2.5" ry="2.5" style="stroke:#181818;stroke-width:1;" width="800" x="386" y="246.0679"/><text fill="#000000" font-family="Monospace" font-size="14" font-weight="bold" lengthAdjust="spacing" textLength="144.455" x="713.7725" y="263.0339">HTTP&#160;Adapter&#160;Family</text></g><!--cluster Mail Protocol Lane--><g class="cluster" data-qualified-name="Mail Protocol Lane" data-source-line="30" id="ent0018"><rect fill="#F8FAFC" height="303" rx="2.5" ry="2.5" style="stroke:#181818;stroke-width:1;" width="202" x="1226" y="246.0679"/><text fill="#000000" font-family="Monospace" font-size="14" font-weight="bold" lengthAdjust="spacing" textLength="128.8415" x="1262.5792" y="263.0339">Mail&#160;Protocol&#160;Lane</text></g><!--cluster Verification--><g class="cluster" data-qualified-name="Verification" data-source-line="36" id="ent0022"><rect fill="#F8FAFC" height="96" rx="2.5" ry="2.5" style="stroke:#181818;stroke-width:1;" width="200" x="1260" y="140.5679"/><text fill="#000000" font-family="Monospace" font-size="14" font-weight="bold" lengthAdjust="spacing" textLength="79.7297" x="1320.1351" y="157.5339">Verification</text></g><!--entity contributor--><g class="entity" data-qualified-name="contributor" data-source-line="7" id="ent0002"><ellipse cx="72.9929" cy="52.5679" fill="#F1F1F1" rx="8" ry="8" style="stroke:#181818;stroke-width:0.5;"/><path d="M72.9929,60.5679 L72.9929,87.5679 M59.9929,68.5679 L85.9929,68.5679 M72.9929,87.5679 L59.9929,102.5679 M72.9929,87.5679 L85.9929,102.5679" fill="none" style="stroke:#181818;stroke-width:0.5;"/><text fill="#000000" font-family="Monospace" font-size="14" lengthAdjust="spacing" textLength="76.9857" x="34.5" y="119.0339">Contributor</text></g><g class="entity" data-qualified-name="GMN45" data-source-line="67" id="ent0046"><path d="M1826,177.0679 L1826,222.4799 A0,0 0 0 0 1826,222.4799 L2164.1092,222.4799 A0,0 0 0 0 2164.1092,222.4799 L2164.1092,187.0679 L2154.1092,177.0679 L1955.9146,177.0679 L95.5572,160.7905 L1947.9146,177.0679 L1826,177.0679 A0,0 0 0 0 1826,177.0679" fill="#FEFFDD" style="stroke:#181818;stroke-width:0.5;"/><path d="M2154.1092,177.0679 L2154.1092,187.0679 L2164.1092,187.0679 L2154.1092,177.0679" fill="#FEFFDD" style="stroke:#181818;stroke-width:0.5;"/><text fill="#000000" font-family="Monospace" font-size="13" lengthAdjust="spacing" textLength="287.3262" x="1832" y="195.9649">No&#160;single&#160;repo-wide&#160;relay&#160;dispatcher&#160;exists&#160;yet.</text><text fill="#000000" font-family="Monospace" font-size="13" lengthAdjust="spacing" textLength="317.1092" x="1832" y="213.6709">The&#160;per-provider&#160;CLI&#160;scripts&#160;are&#160;the&#160;stable&#160;interface.</text></g><!--entity docs--><g class="entity" data-qualified-name="Documentation . Contracts.docs" data-source-line="10" id="ent0004"><rect fill="#E2E8F0" height="77.2038" rx="2.5" ry="2.5" style="stroke:#181818;stroke-width:0.5;" width="101.5917" x="22" y="161.0679"/><text fill="#000000" font-family="Monospace" font-size="14" lengthAdjust="spacing" textLength="81.5917" x="32" y="186.0339">README.md</text><text fill="#000000" font-family="Monospace" font-size="14" lengthAdjust="spacing" textLength="78.4837" x="32" y="205.1018">AGENTS.md</text><text fill="#000000" font-family="Monospace" font-size="14" lengthAdjust="spacing" textLength="78.8197" x="32" y="224.1697">CLAUDE.md</text></g><!--entity archdocs--><g class="entity" data-qualified-name="Documentation . Contracts.archdocs" data-source-line="11" id="ent0005"><rect fill="#DBEAFE" height="58.1358" rx="2.5" ry="2.5" style="stroke:#181818;stroke-width:0.5;" width="305.1929" x="22.5" y="285.5679"/><text fill="#000000" font-family="Monospace" font-size="14" lengthAdjust="spacing" textLength="285.1929" x="32.5" y="310.5339">docs/contributor-architecture-blueprint.md</text><text fill="#000000" font-family="Monospace" font-size="14" lengthAdjust="spacing" textLength="214.2272" x="32.5" y="329.6018">repo-architecture.puml&#160;/&#160;.drawio</text></g><!--entity config--><g class="entity" data-qualified-name="Documentation . Contracts.config" data-source-line="12" id="ent0006"><rect fill="#FCE7F3" height="58.1358" rx="2.5" ry="2.5" style="stroke:#181818;stroke-width:0.5;" width="227.0032" x="142.5" y="170.5679"/><text fill="#000000" font-family="Monospace" font-size="14" lengthAdjust="spacing" textLength="207.0032" x="152.5" y="195.5339">services/*/config.example.yaml</text><text fill="#000000" font-family="Monospace" font-size="14" lengthAdjust="spacing" textLength="180.3893" x="152.5" y="214.6018">config.local.yaml&#160;+&#160;env&#160;vars</text></g><!--entity signal_py--><g class="entity" data-qualified-name="Signal Adapter Lane.signal_py" data-source-line="16" id="ent0008"><rect fill="#E0F2FE" height="58.1358" rx="2.5" ry="2.5" style="stroke:#181818;stroke-width:0.5;" width="158.0955" x="1476" y="285.5679"/><text fill="#000000" font-family="Monospace" font-size="14" lengthAdjust="spacing" textLength="116.3396" x="1486" y="310.5339">send_message.py</text><text fill="#000000" font-family="Monospace" font-size="14" lengthAdjust="spacing" textLength="138.0955" x="1486" y="329.6018">receive_messages.py</text></g><!--entity signal_sh--><g class="entity" data-qualified-name="Signal Adapter Lane.signal_sh" data-source-line="17" id="ent0009"><rect fill="#E0F2FE" height="58.1358" rx="2.5" ry="2.5" style="stroke:#181818;stroke-width:0.5;" width="157.7035" x="1652" y="285.5679"/><text fill="#000000" font-family="Monospace" font-size="14" lengthAdjust="spacing" textLength="115.9476" x="1662" y="310.5339">send_message.sh</text><text fill="#000000" font-family="Monospace" font-size="14" lengthAdjust="spacing" textLength="137.7035" x="1662" y="329.6018">receive_messages.sh</text></g><!--entity signal_test--><g class="entity" data-qualified-name="Signal Adapter Lane.signal_test" data-source-line="18" id="ent0010"><rect fill="#FDE68A" height="39.0679" rx="2.5" ry="2.5" style="stroke:#181818;stroke-width:0.5;" width="244.3771" x="1520" y="180.0679"/><text fill="#000000" font-family="Monospace" font-size="14" lengthAdjust="spacing" textLength="224.3771" x="1530" y="205.0339">test_send_receive_confirm.py&#160;/&#160;.sh</text></g><!--entity signal_cli--><g class="entity" data-qualified-name="Signal Adapter Lane.signal_cli" data-source-line="19" id="ent0011"><rect fill="#DCFCE7" height="39.0679" rx="2.5" ry="2.5" style="stroke:#181818;stroke-width:0.5;" width="155.9955" x="1565" y="408.0679"/><text fill="#000000" font-family="Monospace" font-size="14" lengthAdjust="spacing" textLength="135.9955" x="1575" y="433.0339">signal-cli&#160;subprocess</text></g><!--entity telegram--><g class="entity" data-qualified-name="HTTP Adapter Family.telegram" data-source-line="23" id="ent0013"><rect fill="#E0F2FE" height="77.2038" rx="2.5" ry="2.5" style="stroke:#181818;stroke-width:0.5;" width="255.8851" x="922" y="276.0679"/><text fill="#000000" font-family="Monospace" font-size="14" lengthAdjust="spacing" textLength="235.8851" x="932" y="301.0339">telegram/common.py&#160;+&#160;common.sh</text><text fill="#000000" font-family="Monospace" font-size="14" lengthAdjust="spacing" textLength="191.5893" x="932" y="320.1018">Bot&#160;API&#160;config,&#160;TLS,&#160;requests,</text><text fill="#000000" font-family="Monospace" font-size="14" lengthAdjust="spacing" textLength="141.6095" x="932" y="339.1697">update&#160;normalization</text></g><!--entity whatsapp--><g class="entity" data-qualified-name="HTTP Adapter Family.whatsapp" data-source-line="24" id="ent0014"><rect fill="#E0F2FE" height="77.2038" rx="2.5" ry="2.5" style="stroke:#181818;stroke-width:0.5;" width="260.4351" x="644" y="276.0679"/><text fill="#000000" font-family="Monospace" font-size="14" lengthAdjust="spacing" textLength="240.4351" x="654" y="301.0339">whatsapp/common.py&#160;+&#160;common.sh</text><text fill="#000000" font-family="Monospace" font-size="14" lengthAdjust="spacing" textLength="201.3612" x="654" y="320.1018">Gateway&#160;auth,&#160;receive&#160;cursors,</text><text fill="#000000" font-family="Monospace" font-size="14" lengthAdjust="spacing" textLength="153.6914" x="654" y="339.1697">message&#160;normalization</text></g><!--entity twilio--><g class="entity" data-qualified-name="HTTP Adapter Family.twilio" data-source-line="25" id="ent0015"><rect fill="#E0F2FE" height="77.2038" rx="2.5" ry="2.5" style="stroke:#181818;stroke-width:0.5;" width="231.4552" x="394.5" y="276.0679"/><text fill="#000000" font-family="Monospace" font-size="14" lengthAdjust="spacing" textLength="211.4552" x="404.5" y="301.0339">twilio/common.py&#160;+&#160;common.sh</text><text fill="#000000" font-family="Monospace" font-size="14" lengthAdjust="spacing" textLength="181.2433" x="404.5" y="320.1018">Basic&#160;auth,&#160;message&#160;listing,</text><text fill="#000000" font-family="Monospace" font-size="14" lengthAdjust="spacing" textLength="123.0035" x="404.5" y="339.1697">SMS&#160;normalization</text></g><!--entity http_entrypoints--><g class="entity" data-qualified-name="HTTP Adapter Family.http_entrypoints" data-source-line="26" id="ent0016"><rect fill="#FDE68A" height="58.1358" rx="2.5" ry="2.5" style="stroke:#181818;stroke-width:0.5;" width="181.0694" x="821.5" y="398.5679"/><text fill="#000000" font-family="Monospace" font-size="14" lengthAdjust="spacing" textLength="154.8954" x="831.5" y="423.5339">send&#160;/&#160;receive&#160;/&#160;confirm</text><text fill="#000000" font-family="Monospace" font-size="14" lengthAdjust="spacing" textLength="161.0694" x="831.5" y="442.6018">entrypoints&#160;per&#160;provider</text></g><!--entity http_apis--><g class="entity" data-qualified-name="HTTP Adapter Family.http_apis" data-source-line="27" id="ent0017"><rect fill="#DCFCE7" height="39.0679" rx="2.5" ry="2.5" style="stroke:#181818;stroke-width:0.5;" width="245.5531" x="789" y="502.0679"/><text fill="#000000" font-family="Monospace" font-size="14" lengthAdjust="spacing" textLength="225.5531" x="799" y="527.0339">Telegram&#160;/&#160;WhatsApp&#160;/&#160;Twilio&#160;APIs</text></g><!--entity gmail_common--><g class="entity" data-qualified-name="Mail Protocol Lane.gmail_common" data-source-line="31" id="ent0019"><rect fill="#E0F2FE" height="77.2038" rx="2.5" ry="2.5" style="stroke:#181818;stroke-width:0.5;" width="185.2554" x="1234.5" y="276.0679"/><text fill="#000000" font-family="Monospace" font-size="14" lengthAdjust="spacing" textLength="157.6534" x="1244.5" y="301.0339">gmail-imap/common.py</text><text fill="#000000" font-family="Monospace" font-size="14" lengthAdjust="spacing" textLength="165.2554" x="1244.5" y="320.1018">IMAP&#160;+&#160;SMTP&#160;config,&#160;TLS,</text><text fill="#000000" font-family="Monospace" font-size="14" lengthAdjust="spacing" textLength="150.3174" x="1244.5" y="339.1697">filters,&#160;mailbox&#160;helpers</text></g><!--entity gmail_scripts--><g class="entity" data-qualified-name="Mail Protocol Lane.gmail_scripts" data-source-line="32" id="ent0020"><rect fill="#FDE68A" height="77.2038" rx="2.5" ry="2.5" style="stroke:#181818;stroke-width:0.5;" width="143.3255" x="1262.5" y="389.0679"/><text fill="#000000" font-family="Monospace" font-size="14" lengthAdjust="spacing" textLength="99.9316" x="1272.5" y="414.0339">check_inbox.py</text><text fill="#000000" font-family="Monospace" font-size="14" lengthAdjust="spacing" textLength="93.6456" x="1272.5" y="433.1018">send_email.py</text><text fill="#000000" font-family="Monospace" font-size="14" lengthAdjust="spacing" textLength="123.3255" x="1272.5" y="452.1697">test_connection.py</text></g><!--entity mail_servers--><g class="entity" data-qualified-name="Mail Protocol Lane.mail_servers" data-source-line="33" id="ent0021"><rect fill="#DCFCE7" height="39.0679" rx="2.5" ry="2.5" style="stroke:#181818;stroke-width:0.5;" width="158.3055" x="1255" y="502.0679"/><text fill="#000000" font-family="Monospace" font-size="14" lengthAdjust="spacing" textLength="138.3055" x="1265" y="527.0339">IMAP&#160;+&#160;SMTP&#160;servers</text></g><!--entity ci--><g class="entity" data-qualified-name="Verification.ci" data-source-line="37" id="ent0023"><rect fill="#DCFCE7" height="58.1358" rx="2.5" ry="2.5" style="stroke:#181818;stroke-width:0.5;" width="182.6234" x="1268.5" y="170.5679"/><text fill="#000000" font-family="Monospace" font-size="14" lengthAdjust="spacing" textLength="162.6234" x="1278.5" y="195.5339">.github/workflows/ci.yml</text><text fill="#000000" font-family="Monospace" font-size="14" lengthAdjust="spacing" textLength="150.3174" x="1278.5" y="214.6018">compileall&#160;+&#160;shellcheck</text></g><g class="link" data-entity-1="ent0002" data-entity-2="ent0004" data-link-type="dependency" id="lnk24"><polygon fill="#181818" points="73,160.7857,77,151.7857,73,155.7857,69,151.7857,73,160.7857" style="stroke:#181818;stroke-width:1;"/><path d="M73,123.1631 C73,135.3068 73,142.6991 73,154.7857" fill="none" style="stroke:#181818;stroke-width:1;"/></g><g class="link" data-entity-1="ent0004" data-entity-2="ent0005" data-link-type="dependency" id="lnk25"><polygon fill="#181818" points="149.5735,285.3993,146.5122,276.0383,146.2232,281.6877,140.5737,281.3987,149.5735,285.3993" style="stroke:#181818;stroke-width:1;"/><path d="M106.9645,238.1953 C120.8732,253.6039 132.6714,266.6745 145.5531,280.9454" fill="none" style="stroke:#181818;stroke-width:1;"/></g><g class="link" data-entity-1="ent0006" data-entity-2="ent0008" data-link-type="dependency" id="lnk26"><polygon fill="#181818" points="1515.215,285.5407,1509.755,277.3439,1510.9919,282.8639,1505.472,284.1008,1515.215,285.5407" style="stroke:#181818;stroke-width:1;"/><path d="M369.6548,204.7962 C663.4343,215.7472 1425.643,244.3066 1432,246.0679 C1461.6946,254.2954 1487.0084,267.6613 1510.1473,282.3285" fill="none" style="stroke:#181818;stroke-width:1;"/></g><g class="link" data-entity-1="ent0006" data-entity-2="ent0009" data-link-type="dependency" id="lnk27"><polygon fill="#181818" points="1703.6787,285.2417,1699.7151,276.2256,1699.9809,281.8762,1694.3303,282.1421,1703.6787,285.2417" style="stroke:#181818;stroke-width:1;"/><path d="M369.5804,205.4493 C555.0508,213.2805 934.5125,228.7178 1256,238.0679 C1277.4955,238.6931 1622.7085,238.9472 1643,246.0679 C1665.8922,254.1013 1683.1304,266.54 1699.2414,281.2031" fill="none" style="stroke:#181818;stroke-width:1;"/></g><g class="link" data-entity-1="ent0006" data-entity-2="ent0013" data-link-type="dependency" id="lnk28"><polygon fill="#181818" points="986.5285,275.9032,980.3616,268.224,982.0842,273.6122,976.6961,275.3348,986.5285,275.9032" style="stroke:#181818;stroke-width:1;"/><path d="M369.7319,203.1505 C529.9892,207.6939 813.7867,219.3063 913,246.0679 C938.088,252.8351 958.7116,261.5638 981.1954,273.154" fill="none" style="stroke:#181818;stroke-width:1;"/></g><g class="link" data-entity-1="ent0006" data-entity-2="ent0014" data-link-type="dependency" id="lnk29"><polygon fill="#181818" points="707.4324,275.9464,701.1617,268.3518,702.9574,273.7161,697.5931,275.5118,707.4324,275.9464" style="stroke:#181818;stroke-width:1;"/><path d="M369.5931,204.4993 C445.6859,209.4874 547.4028,220.7415 634,246.0679 C658.8623,253.3392 679.3954,261.9728 702.0624,273.27" fill="none" style="stroke:#181818;stroke-width:1;"/></g><g class="link" data-entity-1="ent0006" data-entity-2="ent0015" data-link-type="dependency" id="lnk30"><polygon fill="#181818" points="443.105,276.0529,437.021,268.3079,438.6856,273.7143,433.2792,275.3789,443.105,276.0529" style="stroke:#181818;stroke-width:1;"/><path d="M338.999,228.6839 C353.4717,234.112 368.2777,240.0071 382,246.0679 C402.2233,255.0001 418.3649,262.9611 437.8017,273.2466" fill="none" style="stroke:#181818;stroke-width:1;"/></g><g class="link" data-entity-1="ent0006" data-entity-2="ent0019" data-link-type="dependency" id="lnk31"><polygon fill="#181818" points="1264.2931,275.965,1258.1445,268.2712,1259.8543,273.6635,1254.4621,275.3733,1264.2931,275.965" style="stroke:#181818;stroke-width:1;"/><path d="M369.8829,200.3462 C583.9017,200.881 1038.2352,206.7928 1190,246.0679 C1215.4126,252.6444 1236.3321,261.4673 1258.9666,273.2032" fill="none" style="stroke:#181818;stroke-width:1;"/></g><g class="link" data-entity-1="ent0008" data-entity-2="ent0011" data-link-type="dependency" id="lnk32"><polygon fill="#181818" points="1628.2646,407.9812,1625.8078,398.4437,1625.1584,404.0631,1619.5389,403.4136,1628.2646,407.9812" style="stroke:#181818;stroke-width:1;"/><path d="M1577.2061,343.5779 C1593.1939,363.7443 1610.5902,385.6874 1624.5371,403.2795" fill="none" style="stroke:#181818;stroke-width:1;"/></g><g class="link" data-entity-1="ent0009" data-entity-2="ent0011" data-link-type="dependency" id="lnk33"><polygon fill="#181818" points="1657.7354,407.9812,1666.4611,403.4136,1660.8416,404.0631,1660.1922,398.4437,1657.7354,407.9812" style="stroke:#181818;stroke-width:1;"/><path d="M1708.7939,343.5779 C1692.8061,363.7443 1675.4098,385.6874 1661.4629,403.2795" fill="none" style="stroke:#181818;stroke-width:1;"/></g><g class="link" data-entity-1="ent0010" data-entity-2="ent0008" data-link-type="dependency" id="lnk34"><polygon fill="#181818" points="1576.5615,285.5628,1585.2214,280.8717,1579.6117,281.6009,1578.8825,275.9913,1576.5615,285.5628" style="stroke:#181818;stroke-width:1;"/><path d="M1627.6337,219.2276 C1613.7341,237.2811 1596.1501,260.1201 1580.2218,280.8086" fill="none" style="stroke:#181818;stroke-width:1;"/></g><g class="link" data-entity-1="ent0010" data-entity-2="ent0009" data-link-type="dependency" id="lnk35"><polygon fill="#181818" points="1708.9428,285.5628,1706.5165,276.0174,1705.8491,281.6348,1700.2318,280.9674,1708.9428,285.5628" style="stroke:#181818;stroke-width:1;"/><path d="M1656.6965,219.2276 C1670.9157,237.2811 1688.9359,260.1607 1705.2304,280.8492" fill="none" style="stroke:#181818;stroke-width:1;"/></g><g class="link" data-entity-1="ent0013" data-entity-2="ent0016" data-link-type="dependency" id="lnk36"><polygon fill="#181818" points="946.8901,398.5041,956.41,395.9802,950.7862,395.3704,951.396,389.7465,946.8901,398.5041" style="stroke:#181818;stroke-width:1;"/><path d="M1003.2795,353.1475 C984.8259,367.9905 968.666,380.9888 951.5654,394.7436" fill="none" style="stroke:#181818;stroke-width:1;"/></g><g class="link" data-entity-1="ent0014" data-entity-2="ent0016" data-link-type="dependency" id="lnk37"><polygon fill="#181818" points="877.1099,398.5041,872.604,389.7465,873.2138,395.3704,867.59,395.9802,877.1099,398.5041" style="stroke:#181818;stroke-width:1;"/><path d="M820.7205,353.1475 C839.1741,367.9905 855.334,380.9888 872.4346,394.7436" fill="none" style="stroke:#181818;stroke-width:1;"/></g><g class="link" data-entity-1="ent0015" data-entity-2="ent0016" data-link-type="dependency" id="lnk38"><polygon fill="#181818" points="821.3538,403.2991,813.6516,397.1609,816.515,402.0395,811.6364,404.903,821.3538,403.2991" style="stroke:#181818;stroke-width:1;"/><path d="M625.7363,350.4312 C628.8552,351.3249 631.9476,352.2053 635,353.0679 C697.0038,370.5897 761.3532,387.6812 815.5472,401.7876" fill="none" style="stroke:#181818;stroke-width:1;"/></g><g class="link" data-entity-1="ent0016" data-entity-2="ent0017" data-link-type="dependency" id="lnk39"><polygon fill="#181818" points="912,501.933,916,492.933,912,496.933,908,492.933,912,501.933" style="stroke:#181818;stroke-width:1;"/><path d="M912,456.6708 C912,471.3611 912,482.9365 912,495.933" fill="none" style="stroke:#181818;stroke-width:1;"/></g><g class="link" data-entity-1="ent0019" data-entity-2="ent0020" data-link-type="dependency" id="lnk40"><polygon fill="#181818" points="1331.6326,389.0271,1335.0582,379.7932,1331.3179,384.037,1327.074,380.2967,1331.6326,389.0271" style="stroke:#181818;stroke-width:1;"/><path d="M1329.3699,353.1475 C1330.0997,364.72 1330.5253,371.469 1331.2549,383.039" fill="none" style="stroke:#181818;stroke-width:1;"/></g><g class="link" data-entity-1="ent0020" data-entity-2="ent0021" data-link-type="dependency" id="lnk41"><polygon fill="#181818" points="1334,501.9538,1338,492.9538,1334,496.9538,1330,492.9538,1334,501.9538" style="stroke:#181818;stroke-width:1;"/><path d="M1334,466.2533 C1334,478.5598 1334,485.6877 1334,495.9538" fill="none" style="stroke:#181818;stroke-width:1;"/></g><g class="link" data-entity-1="ent0023" data-entity-2="ent0009" data-link-type="dependency" id="lnk42"><polygon fill="#181818" points="1703.6029,285.4537,1699.6123,276.4495,1699.895,282.0993,1694.2453,282.382,1703.6029,285.4537" style="stroke:#181818;stroke-width:1;"/><path d="M1428.8251,228.6469 C1440.4026,232.4218 1452.4206,235.7765 1464,238.0679 C1503.06,245.7975 1605.5896,232.4336 1643,246.0679 C1665.7942,254.3753 1683.0188,266.8316 1699.1535,281.4284" fill="none" style="stroke:#181818;stroke-width:1;"/></g><g class="link" data-entity-1="ent0023" data-entity-2="ent0016" data-link-type="dependency" id="lnk43"><polygon fill="#181818" points="1002.8223,423.8921,1012.2009,426.899,1007.7931,423.3533,1011.3388,418.9455,1002.8223,423.8921" style="stroke:#181818;stroke-width:1;"/><path d="M1268.4892,217.3668 C1251.3568,223.9846 1234.8284,233.2093 1222,246.0679 C1186.6615,281.4896 1223.339,318.6734 1187,353.0679 C1137.739,399.6931 1068.2183,416.8039 1008.7873,423.2455" fill="none" style="stroke:#181818;stroke-width:1;"/></g><g class="link" data-entity-1="ent0023" data-entity-2="ent0020" data-link-type="dependency" id="lnk44"><polygon fill="#181818" points="1398.792,388.8358,1408.2399,386.054,1402.6015,385.5973,1403.0582,379.9589,1398.792,388.8358" style="stroke:#181818;stroke-width:1;"/><path d="M1414.0937,228.7867 C1419.6484,233.8068 1424.5202,239.5526 1428,246.0679 C1450.4039,288.0154 1448.8386,310.3212 1428,353.0679 C1421.2825,366.8476 1415.1656,374.9161 1403.3634,384.9496" fill="none" style="stroke:#181818;stroke-width:1;"/></g><?plantuml-src VLPDZzis4BtpLqoyjsOj1ocGxgc0uezqWVLY4Rl9nO11IxH5c29Pah9N2VhVEwGaczh8lKapd3V3DpDFUgSDFPGK1ArLvS2Mp559YUDECB25oevZmz09NvbMbZjbQaXDLd37CbSPHkoHIqqDBV4qpTMPomFigR2n9sTxMWctKD8zqvB1KabbDStYC_Xwf0UsSZKcDWXEvK4mGcY6EM6AeORlAlzCBMJNLqBQI1ZDL5QLJ3hgk9BmlWd2U3k2kyN38brCuIU1ApYClixJsNAUbFb6fb_cp-jLU9m-fN_Fl7NaS-Kgit0t_pX_M7peHtlF92fbJ2DYnZjHCMsuT07J87qzVwAhKi04ajpGCrSXbVStwMQVv-bYtazdcJdnZDd9RpxfdXyIzafBBLXIqr9iP6iKAgCYc9029azmeiQEMjRm078ndV-n-9ty6r6tuWT91QGvrOuPUAAItIJDCfblIsOjHYQwzdVB63-npcRH6FBP0BhLDTBtOV7nr_j4EBOOmB55Z6EBOHp7hDi6i0uWNDIKM8Sdk8_YJ-FDPlDF3-cRUiA1SIOus6gdZKAkRHpgFNUpgQUlHzvVw_NBXRe5BRceRvBdc607d7TiOLagwKjy3-spv-2pSf2-FBQzkeVrq-eUu_-fi6nxlv6LpgbZ89KfgU0_mgY76ZlWOOxE1NMMQdqhxHS4FUEMqyeLFb_W4RBAM6LyshOb0taxv1kzENF1rStBKikpDcUNGN3hK4Cmvsgv6hfdGBmzKTZnhlm9j8EmaQWAfjOAjz62nYvXTqyyPoP05ixfRNnYS3pM7S4J-ExldEAT9x1koi6MsIiMrTmEJigISW4lHZcLAV7_MuQYpCMObpJgsKO-BjCNv72rn8cBHsI3ZmB7poAH6BTJhr0mWJTjgWfWsmPdcBgiODbnooL6XaHXdvWF2wzXnp2Xn0WUQebmRMQulaLRNB5NiAwa9h8n37BrZHc-vrdR-Hii9GVkYcetEIjpt0jrHZtcITseOQcvO5Hu6RH8XWXNR8ImjyUHWiDu_6SGV19asBzrcanQzVIsYx0D66qH6xkjZ6tTnlJEXJ6ABN7B2BbAQPGAzOXSjN7O4UIkN_CD3nPEBYBYxM_NWbnMVT3RBkQWxvSDkvpogq98Rpwljsy7Y_J7pFlZwS4EyhSTuCDrjFO-Ef4A5TNmG-50xPls0pmhn0j35ZxTPrGBQFw4Sex_BWwdoG1xHRMoK3ENOCYwO5vSnfsumFJf4RgggM7Wy81rT8UWM0upU_m5IeWNBL_2Vm00?></g></svg>